<?xml version="1.0" encoding="UTF-8" standalone="no"?>
<svg
   xmlns:dc="http://purl.org/dc/elements/1.1/"
   xmlns:cc="http://creativecommons.org/ns#"
   xmlns:rdf="http://www.w3.org/1999/02/22-rdf-syntax-ns#"
   xmlns:svg="http://www.w3.org/2000/svg"
   xmlns="http://www.w3.org/2000/svg"
   xmlns:sodipodi="http://sodipodi.sourceforge.net/DTD/sodipodi-0.dtd"
   xmlns:inkscape="http://www.inkscape.org/namespaces/inkscape"
   version="1.1"
   id="Capa_1"
   x="0px"
   y="0px"
   width="192.563px"
   height="192.564px"
   viewBox="0 0 192.563 192.564"
   style="enable-background:new 0 0 192.563 192.564;"
   xml:space="preserve"
   sodipodi:docname="logo_site.svg"
   inkscape:version="1.0.2-2 (e86c870879, 2021-01-15)"><metadata
   id="metadata335"><rdf:RDF><cc:Work
       rdf:about=""><dc:format>image/svg+xml</dc:format><dc:type
         rdf:resource="http://purl.org/dc/dcmitype/StillImage" /><dc:title></dc:title></cc:Work></rdf:RDF></metadata><defs
   id="defs333" /><sodipodi:namedview
   pagecolor="#ffffff"
   bordercolor="#666666"
   borderopacity="1"
   objecttolerance="10"
   gridtolerance="10"
   guidetolerance="10"
   inkscape:pageopacity="0"
   inkscape:pageshadow="2"
   inkscape:window-width="1920"
   inkscape:window-height="1017"
   id="namedview331"
   showgrid="false"
   inkscape:zoom="4.414117"
   inkscape:cx="96.281502"
   inkscape:cy="96.281998"
   inkscape:window-x="-8"
   inkscape:window-y="-8"
   inkscape:window-maximized="1"
   inkscape:current-layer="Capa_1" />
<g
   id="g298">
	<g
   id="g296">
		<path
   d="M139.811,50.838c-3.703-2.929-9.201-2.959-13.671-2.967c-8.043-0.014-15.682,0.623-23.77,0.151    c-20.927-1.22-42.187-0.808-63.016,1.498c-10.126,1.121-24.147-4.622-33.485-0.188c-7.666,3.64-5.762,16.326-5.387,23.08    c0.604,10.891,2.837,21.774,2.532,32.696c-0.271,9.715-3.466,24.397,2.392,33.09c0.123,1.544,1.19,3.048,2.993,2.921    c1.228-0.086,2.456-0.172,3.685-0.258c0.493-0.035,0.913-0.165,1.272-0.355c13.864-1.652,27.787-2.021,41.717-1.52    c0.017,4.324-0.236,8.608-0.515,12.913c-4.335,0.165-8.668,0.398-12.994,0.724c-1.261,0.095-2.79,0.867-3,2.284    c-0.581,3.917-0.107,7.364,0.738,11.235c0.306,1.403,1.665,2.199,2.999,2.282c14.948,0.94,34.952,6.436,50.217,1.259    c7.061-1.024,12.886-4.232,11.865-12.477c-0.157-1.265-0.823-2.787-2.289-3.007c-3.155-0.474-6.32-0.851-9.487-1.185    c0.087-2.955,0.263-6.121,0.763-8.247c0.123-0.258,0.217-0.532,0.256-0.827c0.069-0.261,0.092-0.523,0.07-0.789    c-0.064-1.657-1.182-2.553-2.437-2.671c-0.025-0.135-0.053-0.271-0.079-0.406c14.932-0.257,29.875-0.878,44.633,1.713    c1.548,0.272,3.516-0.393,3.835-2.178c3.415-19.073,1.09-38.356,2.32-57.58C142.569,72.649,148.9,58.028,139.811,50.838z     M7.674,83.533c0.125-0.202,0.24-0.419,0.325-0.681c0.039,1.554,0.08,3.107,0.112,4.661C7.957,86.183,7.82,84.859,7.674,83.533z     M78.106,53.682c-2.853,0.139-5.701,0.27-8.534,0.378c-3.868,0.148-7.77,0.16-11.689,0.112    C64.613,53.818,71.363,53.679,78.106,53.682z M64.953,140.967c-0.145-0.501-0.294-1.003-0.461-1.503    c0.355,0.023,0.71,0.044,1.065,0.068C65.345,140.006,65.146,140.486,64.953,140.967z M132.23,77.085    c-1.418,16.279-0.938,33.144-0.913,49.556c-15.988-0.975-31.838,1.396-47.736,2.994c-10.344,1.04-20.15,0.537-30.472-0.101    c-9.989-0.618-20.015-1.164-30.025-0.819c-3.375,0.116-8.212,0.099-11.878,1.626c0.248-0.297,0.453-0.671,0.586-1.145    c5.992-21.349,2.323-45.999,1.964-68.105c16.16-2.314,32.909,0.124,49.183-0.547c16.446-0.679,33.003-0.384,49.422-1.329    c5.9-0.34,11.919-1.219,17.805-0.265C135.366,59.795,132.521,73.753,132.23,77.085z"
   id="path292" />
		<path
   d="M191.985,90.151c-0.653-21.956,0.527-43.912-2.967-65.696c-0.215-1.344-1.729-2.28-2.996-2.281    c-18.937-0.003-37.856-0.104-56.751-1.478c-1.695-0.124-3.109,1.508-3.111,3.111c-0.007,6.166-0.103,12.288-0.737,18.426    c-0.174,1.676,1.547,3.133,3.111,3.112c8.156-0.106,18.26-2.967,20.581,7.297c2.285,10.101,0.311,21.153-0.078,31.369    c-0.629,16.594,3.471,33.019,3.107,49.53c-0.774,1.083-0.929,2.57-0.154,3.505c-0.173,2.742-0.476,5.488-0.973,8.237    c-8.097,0.089-16.071,0.476-23.908,2.801c-2.109,0.626-2.252,2.798-1.205,4.075c-0.892,1.358-0.842,3.205,1.059,4.049    c-1.825-0.81-0.806,4.171-0.803,6.159c0.003,1.719,1.413,3.077,3.109,3.109c19.732,0.376,39.281-5.311,58.874-0.853    c2.002,0.456,3.869-0.916,3.931-2.994C192.784,137.796,192.693,113.985,191.985,90.151z M185.963,99.765    c0.032,1.681,0.068,3.362,0.096,5.044c-0.273-0.062-0.564-0.102-0.891-0.085c-4.06,0.198-8.209,0.958-12.266,0.5    c-0.004-2.032-0.008-4.065-0.011-6.098c3.928,0.035,7.819,0.183,11.743,0.744C185.134,99.943,185.574,99.891,185.963,99.765z     M174.183,46.472c0.122,2.753,0.259,5.502,0.146,8.25c-6.014,0.184-11.984,0.737-17.929,1.69    c-0.165-2.403-0.507-4.741-1.127-6.872C161.633,49.052,167.867,47.405,174.183,46.472z M160.01,82.866    c-1.072,0.035-2.813-0.007-4.334,0.316c-0.032-1.512-0.037-3.021-0.019-4.529c0.335-0.155,0.667-0.318,0.996-0.491    c6.654-0.821,13.383-1.916,20.013-0.83c0.218,1.759,0.253,3.547,0.078,5.312C171.165,82.66,165.585,82.683,160.01,82.866z     M181.098,119.64c-2.889,0.479-6.088,0.675-9.086,0.312c-0.183-2.912-0.522-5.813-0.855-8.715    c4.655,0.679,9.298-0.039,14.012-0.271c0.36-0.018,0.678-0.099,0.974-0.205c0.036,2.628,0.058,5.254,0.082,7.88    C184.508,118.667,182.769,119.363,181.098,119.64z"
   id="path294" />
	</g>
</g>
<g
   id="g300">
</g>
<g
   id="g302">
</g>
<g
   id="g304">
</g>
<g
   id="g306">
</g>
<g
   id="g308">
</g>
<g
   id="g310">
</g>
<g
   id="g312">
</g>
<g
   id="g314">
</g>
<g
   id="g316">
</g>
<g
   id="g318">
</g>
<g
   id="g320">
</g>
<g
   id="g322">
</g>
<g
   id="g324">
</g>
<g
   id="g326">
</g>
<g
   id="g328">
</g>
<g
   transform="matrix(0.2476399,0,0,0.2476399,46.317553,61.787136)"
   id="g19931"
   style="stroke:#500000;stroke-opacity:1"><path
     d="m 94.71875,1.5 v 13 h -13 v 15 h 13 v 21.5625 h -1.5625 c -4.118861,0.249235 -8.197393,0.701361 -12.21875,1.28125 l -2.75,-15.625 C 72.160044,37.652282 66.247939,38.958811 60.46875,40.5625 L 63.1875,56.03125 C 59.431133,57.056744 55.725093,58.192115 52.09375,59.5 l -5.25,-14.46875 C 41.149699,47.196911 35.602869,49.677526 30.25,52.46875 L 53.28125,115.75 70.3125,109.5625 57.40625,74.0625 c 2.800774,-0.947382 5.623341,-1.821766 8.5,-2.59375 0.121913,-0.03267 0.252961,-0.06139 0.375,-0.09375 1.142446,-0.303255 2.283836,-0.60011 3.4375,-0.875 1.138046,-0.271171 2.288909,-0.506832 3.4375,-0.75 0.05096,-0.01079 0.105269,-0.02052 0.15625,-0.03125 0.161735,-0.03406 0.306767,-0.06027 0.46875,-0.09375 0.8539,-0.176648 1.734318,-0.370198 2.59375,-0.53125 0.280204,-0.0524 0.562964,-0.105528 0.84375,-0.15625 0.885114,-0.160268 1.765493,-0.293949 2.65625,-0.4375 0.143712,-0.02312 0.26243,-0.03981 0.40625,-0.0625 0.187637,-0.02961 0.405863,-0.06495 0.59375,-0.09375 0.671028,-0.103182 1.325885,-0.187642 2,-0.28125 0.240163,-0.03304 0.478192,-0.06199 0.71875,-0.09375 0.887166,-0.118487 1.763917,-0.241998 2.65625,-0.34375 0.361209,-0.04051 0.731716,-0.08725 1.09375,-0.125 0.848371,-0.09007 1.709655,-0.143965 2.5625,-0.21875 4.055452,-0.355627 8.163872,-0.5625 12.3125,-0.5625 3.04519,-3e-6 6.06672,0.08873 9.0625,0.28125 0.21483,0.0138 0.41043,0.04773 0.625,0.0625 0.41895,0.0288 0.83218,0.06127 1.25,0.09375 0.38214,0.02974 0.77497,0.06094 1.15625,0.09375 0.0152,0.0013 0.0474,-0.0013 0.0625,0 1.49429,0.128964 2.95749,0.261816 4.4375,0.4375 0.0868,0.01029 0.16325,0.0208 0.25,0.03125 0.0506,0.0061 0.10568,0.02509 0.15625,0.03125 0.73953,0.09001 1.48274,0.179694 2.21875,0.28125 1.61054,0.22223 3.21861,0.473093 4.8125,0.75 2.23219,0.3878 4.46153,0.820195 6.65625,1.3125 1.09736,0.246152 2.19375,0.509499 3.28125,0.78125 3.6798,0.919532 7.28512,1.983624 10.84375,3.1875 l -12.90625,35.5 17,6.1875 23.03125,-63.3125 c -5.34248,-2.78508 -10.88019,-5.244227 -16.5625,-7.40625 l -5.28125,14.5 C 148.67752,58.221414 144.97895,57.02709 141.21875,56 l 2.75,-15.4375 C 138.18477,38.957483 132.28264,37.652481 126.25,36.71875 l -2.78125,15.625 c -4.02161,-0.580493 -8.0683,-1.031761 -12.1875,-1.28125 h -1.5625 V 29.5 h 13 v -15 h -13 v -13 z"
     id="path1904"
     style="display:inline;overflow:visible;visibility:visible;fill:#e20909;fill-opacity:1;fill-rule:nonzero;stroke:#500000;stroke-width:3;stroke-linecap:butt;stroke-linejoin:miter;stroke-miterlimit:4;stroke-dasharray:none;stroke-dashoffset:0;stroke-opacity:1;marker:none;marker-start:none;marker-mid:none;marker-end:none" /><path
     d="M 46.000695,92.698912 C 21.685812,93.153986 2.630107,119.23847 2.7859933,147.16107 2.9749579,181.00908 25.597631,227.36272 83.752348,267.25631 141.90706,227.36272 164.54503,181.00908 164.734,147.16107 164.88976,119.2621 145.85755,93.195599 121.57078,92.698064 109.67919,92.454451 96.527842,98.340749 83.752348,113.14326 70.998942,98.366359 57.875404,92.476668 46.000695,92.698912 Z m 0.244842,18.699848 c 9.782158,-0.34715 22.332511,5.86143 37.506811,22.92338 40.464802,-45.498512 62.267102,-13.7834 62.694982,13.45103 0.43859,27.91685 -21.34437,67.02392 -62.694982,97.99821 C 42.40173,214.79709 20.618764,175.69002 21.057365,147.77317 21.324787,130.75165 29.94194,111.97734 46.245537,111.39876 Z"
     id="path13539"
     style="display:inline;fill:#e20909;fill-opacity:1;fill-rule:evenodd;stroke:#500000;stroke-width:3;stroke-linecap:butt;stroke-linejoin:miter;stroke-miterlimit:4;stroke-dasharray:none;stroke-opacity:1" /><path
     d="m 82.9058,92.698912 c -24.314888,0.455074 -43.370583,26.539558 -43.214702,54.462158 0.149761,26.8253 14.393282,61.50702 49.243948,94.60102 1.013403,-0.80797 2.012268,-1.61615 2.999321,-2.43313 0.159196,-0.13175 0.315852,-0.26589 0.474382,-0.39787 0.06726,-0.056 0.131799,-0.11228 0.198935,-0.16832 0.878333,-0.73321 1.743993,-1.46366 2.601451,-2.20359 0.189508,-0.16346 0.377704,-0.3259 0.566199,-0.48968 0.444448,-0.38633 0.877197,-0.77495 1.316028,-1.163 1.743905,-1.54212 3.454928,-3.10011 5.111088,-4.66731 -29.33483,-27.7592 -44.607875,-59.0496 -44.23998,-82.46602 0.267422,-17.02152 8.88457,-35.79583 25.188172,-36.37441 0.689016,-0.0245 1.395328,-0.0115 2.111767,0.0306 C 90.89526,105.22545 96.586605,100.73364 102.20245,97.70288 95.583367,94.126804 89.077496,92.583405 82.9058,92.698912 Z m 74.44742,0 c -11.59437,0.137738 -24.3195,6.104418 -36.69577,20.444348 -0.5055,-0.58571 -1.0084,-1.15594 -1.51496,-1.7139 -4.98476,0.29448 -10.63318,2.24285 -16.92474,6.3353 5.63503,3.67032 11.78239,9.07201 18.4397,16.55748 40.4648,-45.498512 62.26711,-13.7834 62.69499,13.45103 0.43858,27.91685 -21.34437,67.02392 -62.69499,97.99821 -1.76416,-1.32147 -3.49488,-2.65972 -5.1876,-4.00929 -1.03041,0.97794 -2.08568,1.96319 -3.15234,2.93811 -1.06941,0.97742 -2.15333,1.94891 -3.25947,2.9228 -2.21034,1.94607 -4.49669,3.88596 -6.85559,5.81501 5.70738,4.66975 11.85014,9.28743 18.455,13.8183 58.15472,-39.89359 80.79269,-86.24723 80.98166,-120.09524 0.15576,-27.89897 -18.88202,-53.964624 -43.16879,-54.462158 -0.37162,-0.0076 -0.74309,-0.0044 -1.1171,0 z"
     id="path13537"
     style="display:inline;fill:#e20909;fill-opacity:1;fill-rule:evenodd;stroke:#500000;stroke-width:3;stroke-linecap:butt;stroke-linejoin:miter;stroke-miterlimit:4;stroke-dasharray:none;stroke-opacity:1" /></g></svg>
