<?xml version="1.0" encoding="UTF-8" standalone="no"?><!DOCTYPE svg PUBLIC "-//W3C//DTD SVG 1.1//EN" "http://www.w3.org/Graphics/SVG/1.1/DTD/svg11.dtd"><svg width="100%" height="100%" viewBox="0 0 420 298" version="1.1" xmlns="http://www.w3.org/2000/svg" xmlns:xlink="http://www.w3.org/1999/xlink" xml:space="preserve" xmlns:serif="http://www.serif.com/" style="fill-rule:evenodd;clip-rule:evenodd;stroke-linecap:round;stroke-linejoin:round;stroke-miterlimit:1.5;"><path d="M210.23,9.501c11.777,-0.042 23.638,1.471 35.271,4.621c8.041,2.172 15.783,5.075 23.151,8.633l0.14,0.068l0.276,0.134l0.087,0.042l0.032,0.016l0.088,0.043l0.216,0.106l0.136,0.066l0.056,0.029l0.074,0.036l0.162,0.08l0.178,0.089l0.083,0.041l0.057,0.028l0.115,0.058l0.215,0.108l0.111,0.056l0.039,0.019l0.07,0.036l0.249,0.125l0.141,0.072l0.018,0.01l0.03,0.015c2.12,1.08 4.207,2.215 6.26,3.403l0.019,0.011l0.019,0.011l0.016,0.009c14.303,8.239 27.219,19.2 37.887,32.653l0.02,0.025l0.042,0.052l0.07,0.089l0.053,0.068c3.975,5.018 7.556,10.298 10.736,15.786c2.292,3.93 4.389,7.986 6.279,12.157l0.067,0.148l0.139,0.309l0.023,0.051l0.01,0.023l0.063,0.14l0.116,0.26l0.03,0.069l0.018,0.041l0.069,0.154l0.097,0.221l0.033,0.077l0.026,0.059l0.074,0.168l0.082,0.189l0.034,0.077l0.034,0.079l0.078,0.182l0.069,0.159l0.032,0.075l0.042,0.1l0.083,0.193l0.056,0.132l0.031,0.071l0.051,0.122l0.086,0.204l0.045,0.107l0.027,0.064l0.061,0.147l0.089,0.212l0.035,0.084l0.023,0.055l0.073,0.178l0.088,0.214l0.025,0.061l0.019,0.045l0.09,0.221l0.084,0.205l0.016,0.039l0.014,0.035l0.119,0.296l0.066,0.163l0.007,0.018c0.21,0.526 0.418,1.053 0.622,1.582l0.175,0.455l0.028,0.075l0.006,0.015l0.021,0.057l0.136,0.359l0.039,0.102l0.007,0.021l0.022,0.057l0.122,0.327l0.049,0.131l0.009,0.025l0.019,0.051l0.111,0.301l0.06,0.162l0.009,0.027l0.015,0.041l0.102,0.278l0.072,0.199l0.008,0.024l0.011,0.03l0.093,0.257l0.085,0.239l0.097,0.271l0.1,0.287l0.003,0.006c1.266,3.606 2.383,7.282 3.342,11.02l0.038,0.151l0.05,0.197l0.049,0.192l0.033,0.13l0.007,0.03c2.656,10.565 3.971,21.301 4.009,31.973l0.001,0.094l0.001,0.507l0,0.066l0,0.047l0,0.111c0.002,11.368 -1.444,22.811 -4.414,34.048l-0.016,0.061l-0.033,0.126l-0.018,0.068l-0.01,0.035c-3.122,11.732 -7.797,22.834 -13.794,33.071c-5.644,9.694 -12.545,18.744 -20.629,26.877l-0.053,0.054l-0.088,0.088l-0.101,0.102l-0.061,0.06c-8.368,8.374 -17.715,15.49 -27.744,21.266l-0.001,0.001l-0.027,0.015l-0.026,0.016l-0.001,0c-4.335,2.509 -8.823,4.781 -13.447,6.801l-0.021,0.009l-0.008,0.003l-0.111,0.049l-0.329,0.142l-0.045,0.02l-0.014,0.006l-0.096,0.041l-0.312,0.134l-0.071,0.03l-0.021,0.01l-0.081,0.034l-0.293,0.124l-0.1,0.042l-0.026,0.012l-0.067,0.028l-0.27,0.113l-0.132,0.055l-0.032,0.014l-0.053,0.022l-0.244,0.101l-0.168,0.07l-0.036,0.014l-0.04,0.017l-0.211,0.086l-0.21,0.087l-0.04,0.016l-0.028,0.011l-0.17,0.069l-0.261,0.106l-0.042,0.017l-0.016,0.007l-0.118,0.047l-0.323,0.129l-0.045,0.018l-0.005,0.002l-0.047,0.019c-4.636,1.844 -9.399,3.436 -14.272,4.759l-0.061,0.017l-0.126,0.034l-0.068,0.019l-0.035,0.009c-11.644,3.142 -23.517,4.644 -35.303,4.591c-10.593,-0.021 -21.247,-1.299 -31.738,-3.895l-0.083,-0.021l-0.047,-0.011l-0.09,-0.022l-0.134,-0.034c-12.229,-3.054 -23.795,-7.791 -34.437,-13.95l-0.001,0l-0.027,-0.016l-0.026,-0.015l-0.001,-0.001c-10.663,-6.141 -20.554,-13.796 -29.319,-22.868l-0.039,-0.041l-0.039,-0.04l-0.096,-0.099l-0.095,-0.1c-7.502,-7.802 -13.942,-16.407 -19.257,-25.587c-5.874,-10.086 -10.468,-21.006 -13.56,-32.537l-0.012,-0.045l-0.004,-0.015l-0.004,-0.015l-0.011,-0.044c-3.065,-11.448 -4.548,-23.114 -4.527,-34.7c-0.007,-11.234 1.399,-22.541 4.29,-33.651l0.023,-0.088l0.032,-0.121l0.034,-0.132l0.022,-0.084c1.668,-6.334 3.787,-12.485 6.323,-18.416l0.003,-0.006l0.004,-0.011l0.132,-0.307l0.082,-0.19l0.006,-0.014l0.009,-0.02l0.112,-0.26l0.097,-0.22l0.009,-0.021l0.009,-0.021l0.097,-0.221l0.113,-0.256l0.01,-0.022l0.007,-0.017l0.083,-0.187l0.133,-0.298l0.007,-0.016l0.005,-0.01c0.616,-1.376 1.255,-2.741 1.917,-4.092l0.002,-0.005l0.006,-0.012l0.162,-0.331l0.074,-0.149l0.008,-0.016l0.014,-0.028l0.138,-0.278l0.087,-0.175l0.013,-0.026l0.017,-0.033l0.118,-0.236l0.103,-0.204l0.016,-0.032l0.016,-0.032l0.101,-0.2l0.121,-0.237l0.018,-0.036l0.014,-0.026l0.086,-0.169l0.141,-0.274l0.017,-0.034l0.01,-0.018l0.072,-0.141l0.168,-0.321l0.01,-0.021l0.005,-0.009c0.52,-0.997 1.052,-1.987 1.596,-2.97l0.004,-0.006l0.012,-0.022l0.191,-0.345l0.06,-0.106l0.011,-0.021l0.028,-0.05l0.157,-0.28l0.072,-0.127l0.02,-0.034l0.034,-0.061l0.132,-0.233l0.085,-0.149l0.027,-0.048l0.036,-0.062l0.112,-0.196l0.098,-0.171l0.035,-0.06l0.034,-0.059l0.094,-0.163l0.015,-0.028l0.016,-0.026l0.001,-0.001l0.122,-0.211l0.013,-0.023c5.756,-9.946 12.831,-19.219 21.147,-27.526l0.1,-0.101l0.096,-0.095l0.038,-0.038l0.04,-0.04c8.291,-8.244 17.534,-15.258 27.442,-20.965l0.027,-0.015l0.027,-0.016c10.636,-6.155 22.194,-10.89 34.415,-13.944l0.155,-0.039l0.111,-0.027l0.027,-0.007l0.047,-0.012c10.549,-2.614 21.266,-3.894 31.917,-3.904Zm89.823,89.469c-0.918,-1.844 -1.899,-3.672 -2.943,-5.48c-0.175,-0.302 -0.351,-0.603 -0.529,-0.903c-8.752,-14.758 -21.192,-27.077 -36.047,-35.682l-0.021,-0.012l-0.02,-0.012c-14.88,-8.562 -31.769,-13.176 -48.926,-13.377c-0.348,-0.003 -0.697,-0.005 -1.045,-0.005c-0.647,0 -1.291,0.006 -1.935,0.018c-16.49,0.34 -32.704,4.754 -47.094,12.827c-0.322,0.182 -0.643,0.365 -0.964,0.55c-0.302,0.174 -0.603,0.35 -0.903,0.528c-10.029,5.948 -18.932,13.599 -26.309,22.554l-0.006,0.007l-0.242,0.296l-0.016,0.019l-0.232,0.285l-0.025,0.031l-0.221,0.274l-0.035,0.043l-0.21,0.263l-0.044,0.055l-0.2,0.252l-0.053,0.067l-0.19,0.241l-0.062,0.079l-0.18,0.23l-0.071,0.091l-0.169,0.219l-0.08,0.103l-0.16,0.208l-0.088,0.115l-0.15,0.198l-0.096,0.126l-0.141,0.187l-0.104,0.138l-0.132,0.176l-0.112,0.15l-0.123,0.165l-0.12,0.161l-0.114,0.156l-0.127,0.172l-0.106,0.145l-0.134,0.184l-0.097,0.134l-0.141,0.196l-0.089,0.124l-0.148,0.206l-0.081,0.114l-0.155,0.218l-0.073,0.104l-0.161,0.228l-0.066,0.094l-0.167,0.239l-0.058,0.084l-0.174,0.25l-0.051,0.075l-0.179,0.261l-0.044,0.065l-0.184,0.27l-0.038,0.056l-0.19,0.281l-0.031,0.047l-0.195,0.291l-0.025,0.037l-0.199,0.302l-0.019,0.028l-0.204,0.311l-0.013,0.02l-0.209,0.32l-0.008,0.012l-0.212,0.329l-0.003,0.003c-0.651,1.013 -1.284,2.038 -1.899,3.075c-0.177,0.3 -0.353,0.601 -0.527,0.903c-0.228,0.395 -0.453,0.791 -0.675,1.188c-8.136,14.591 -12.519,31.043 -12.715,47.752l-0.001,0.026l-0.002,0.267c-0.002,0.253 -0.003,0.506 -0.003,0.759c0,0.349 0.002,0.698 0.006,1.046c0.198,16.868 4.661,33.478 12.947,48.173c0.146,0.259 0.294,0.516 0.442,0.774l0.239,0.411c8.595,14.682 20.826,26.981 35.455,35.656c0.299,0.178 0.601,0.354 0.903,0.528c0.528,0.305 1.058,0.605 1.59,0.899c14.227,7.849 30.204,12.14 46.45,12.477c0.649,0.013 1.3,0.019 1.952,0.019c0.349,0 0.698,-0.001 1.046,-0.005c16.595,-0.194 32.939,-4.517 47.457,-12.548c1.59,-0.886 3.153,-1.813 4.688,-2.781l0.008,0.002c13.449,-8.475 24.741,-20.066 32.861,-33.756c0.177,-0.3 0.353,-0.601 0.528,-0.903c4.759,-8.243 8.209,-16.885 10.415,-25.685c1.693,-6.768 2.695,-13.809 2.928,-21.042c0.073,-2.34 0.063,-4.677 -0.028,-7.007l0.011,-0.01c-0.037,-1.007 -0.089,-2.01 -0.157,-3.01l-0.008,-0.007c-0.345,-5.237 -1.099,-10.363 -2.226,-15.349l-0.027,-0.118l-0.1,-0.433l-0.04,-0.171l-0.095,-0.403l-0.048,-0.201l-0.093,-0.382l-0.056,-0.23l-0.088,-0.351l-0.037,-0.146c-0.196,-0.778 -0.402,-1.551 -0.617,-2.321l-0.038,-0.136l-0.116,-0.409l-0.036,-0.127l-0.082,-0.283l-0.044,-0.154c-1.606,-5.499 -3.706,-10.922 -6.317,-16.211l-0.158,-0.317Z" style="fill:#0064ad;stroke:#fbb9b9;stroke-width:0.24px;"/><path d="M200.49,133.449c-2.174,-28.123 -11.729,-70.056 -11.729,-70.056l43.521,0c0,0 -9.554,41.933 -11.729,70.056c28.124,-2.174 70.057,-11.729 70.057,-11.729l0,43.521c0,0 -41.933,-9.554 -70.057,-11.728c2.173,28.106 11.718,70.006 11.729,70.056l-43.521,0c0,0 9.555,-41.933 11.729,-70.056c-28.123,2.174 -70.056,11.728 -70.056,11.728l0,-43.521c0,0 41.933,9.555 70.056,11.729Z" style="fill:#dc2a2a;"/><path d="M210.522,14.471l11.323,22.646l-22.647,0l11.324,-22.646Z" style="fill:#fff;"/><path d="M210.522,271.829l-11.367,-22.735l22.734,0l-11.367,22.735Z" style="fill:#fff;"/><path d="M339.243,143.128l-22.776,11.388l0,-22.776l22.776,11.388Z" style="fill:#fff;"/><path d="M81.863,143.128l22.65,-11.326l0,22.651l-22.65,-11.325Z" style="fill:#fff;"/><path d="M121.499,232.15l6.055,-18.165l12.11,12.11l-18.165,6.055Z" style="fill:#fff;"/><path d="M313.662,57.95l-13.648,40.941c-0.438,-0.883 -0.893,-1.76 -1.361,-2.63l-0.013,-0.003c-0.515,-0.964 -1.046,-1.921 -1.593,-2.87c-0.608,-1.046 -1.234,-2.079 -1.877,-3.1l0.004,-0.014c-7.848,-12.53 -18.595,-23.483 -31.938,-31.752l-0.013,0.004c-1.813,-1.129 -3.666,-2.202 -5.555,-3.216c-1.038,-0.556 -2.082,-1.091 -3.134,-1.6l41.117,-13.706l26.992,-8.997l-8.981,26.943Z" style="fill:#dc2a2a;"/><path d="M299.544,232.15l-18.165,-6.055l12.11,-12.11l6.055,18.165Z" style="fill:#fff;"/><path d="M121.499,54.105l18.165,6.055l-12.11,12.11l-6.055,-18.165Z" style="fill:#fff;"/></svg>